<svg xmlns="http://www.w3.org/2000/svg" width="30" height="30" viewBox="0 0 30 30" fill="none"><path fill="#33313B" d="M28.973 8.119L21.331.177A.578.578 0 0 0 20.915 0H9.524a2.314 2.314 0 0 0-2.312 2.311v8.074H2.595c-.954 0-1.73.775-1.73 1.729v8.657c0 .953.776 1.729 1.73 1.729h4.617v5.193A2.312 2.312 0 0 0 9.524 30h17.299a2.312 2.312 0 0 0 2.312-2.306V8.52a.577.577 0 0 0-.162-.4zm-7.915-6.562l6.274 6.52h-6.274v-6.52zM2.595 21.347a.576.576 0 0 1-.576-.576v-8.657c0-.317.259-.575.576-.575h15.58c.317 0 .575.258.575.575v8.657a.576.576 0 0 1-.576.575H2.595zm25.386 6.347c0 .635-.52 1.152-1.158 1.152h-17.3a1.157 1.157 0 0 1-1.158-1.153V22.5h9.81c.953 0 1.729-.776 1.729-1.73v-8.656c0-.954-.776-1.73-1.73-1.73H8.365V2.312c0-.638.52-1.157 1.159-1.157h10.38v7.5c0 .318.258.577.577.577h7.5v18.463z"/><path fill="#33313B" d="M14.45 16.381v.835h1.146v.63c-.15.116-.332.216-.543.298-.21.082-.42.123-.63.123-.424 0-.766-.146-1.028-.44-.261-.295-.392-.736-.392-1.324 0-.545.13-.957.387-1.234.258-.277.606-.416 1.043-.416.289 0 .53.07.722.212.193.14.324.333.394.576l.994-.186c-.1-.455-.322-.812-.668-1.07-.346-.258-.827-.387-1.442-.387-.473 0-.869.082-1.186.247a2.186 2.186 0 0 0-.95.923c-.216.4-.325.86-.325 1.375 0 .476.097.916.291 1.32.194.405.483.716.869.934.385.217.837.326 1.355.326.408 0 .811-.078 1.209-.232.398-.154.701-.333.911-.536v-1.974H14.45zM11.036 14.643a1.3 1.3 0 0 0-.713-.486c-.185-.05-.582-.074-1.19-.074H7.527v4.956h1v-1.87h.653c.453 0 .799-.023 1.038-.07.176-.04.349-.117.519-.236.17-.118.31-.28.42-.488.111-.207.166-.463.166-.768 0-.394-.096-.716-.287-.964zm-.857 1.363a.657.657 0 0 1-.313.244c-.133.052-.396.078-.79.078h-.548V14.92h.483c.36 0 .6.011.72.034.162.03.296.102.402.22a.64.64 0 0 1 .16.446.666.666 0 0 1-.114.385zM5.465 14.083v3.201c0 .401-.046.666-.139.793-.092.127-.25.19-.473.19a.538.538 0 0 1-.493-.266c-.072-.117-.114-.318-.125-.602l-.944.108c.003.53.136.932.4 1.205.263.274.64.411 1.128.411.417 0 .753-.087 1.008-.262a1.34 1.34 0 0 0 .527-.695c.072-.22.108-.536.108-.946v-3.137h-.997z"/></svg>