<svg xmlns="http://www.w3.org/2000/svg" width="30" height="30" viewBox="0 0 30 30" fill="none"><path fill="#33313B" d="M28.973 8.119L21.33.177A.577.577 0 0 0 20.915 0H9.523a2.314 2.314 0 0 0-2.311 2.311v8.074H2.595c-.954 0-1.73.775-1.73 1.729v8.657c0 .953.776 1.729 1.73 1.729h4.617v5.193A2.312 2.312 0 0 0 9.523 30h17.3a2.311 2.311 0 0 0 2.312-2.306V8.52a.577.577 0 0 0-.162-.4zm-7.915-6.562l6.274 6.52h-6.274v-6.52zM2.595 21.347a.576.576 0 0 1-.576-.576v-8.657c0-.317.259-.575.576-.575h15.58c.317 0 .575.258.575.575v8.657a.576.576 0 0 1-.576.575H2.595zm25.386 6.347c0 .635-.52 1.152-1.158 1.152h-17.3a1.157 1.157 0 0 1-1.158-1.153V22.5h9.81c.953 0 1.729-.776 1.729-1.73v-8.656c0-.954-.776-1.73-1.73-1.73H8.365V2.312c0-.638.52-1.157 1.158-1.157h10.38v7.5c0 .318.26.577.578.577h7.5v18.463z"/><path fill="#33313B" d="M13.134 14.083v.838h1.47v4.118h1.001V14.92h1.467v-.838h-3.938zM12.38 14.643a1.3 1.3 0 0 0-.713-.486c-.185-.05-.582-.074-1.19-.074H8.871v4.956h1v-1.87h.653c.453 0 .8-.023 1.038-.07.176-.04.349-.117.519-.236.17-.118.31-.28.42-.488.111-.207.166-.463.166-.768 0-.394-.095-.716-.287-.964zm-.857 1.363a.659.659 0 0 1-.312.244c-.133.052-.397.078-.792.078h-.547V14.92h.483c.36 0 .6.011.72.034.163.03.297.102.402.22a.64.64 0 0 1 .16.446.667.667 0 0 1-.114.385zM7.762 14.643a1.3 1.3 0 0 0-.713-.486c-.185-.05-.581-.074-1.19-.074H4.254v4.956h1v-1.87h.653c.453 0 .799-.023 1.037-.07.176-.04.35-.117.52-.236.17-.118.31-.28.42-.488.11-.207.166-.463.166-.768 0-.394-.096-.716-.288-.964zm-.856 1.363a.658.658 0 0 1-.313.244c-.133.052-.397.078-.791.078h-.548V14.92h.484c.36 0 .6.011.72.034.162.03.296.102.402.22a.64.64 0 0 1 .159.446.667.667 0 0 1-.113.385z"/></svg>