<svg xmlns="http://www.w3.org/2000/svg" width="30" height="30" viewBox="0 0 30 30" fill="none"><path fill="#33313B" d="M28.973 8.119L21.331.177A.578.578 0 0 0 20.915 0H9.524a2.314 2.314 0 0 0-2.312 2.311v8.074H2.595c-.954 0-1.73.775-1.73 1.729v8.657c0 .953.776 1.729 1.73 1.729h4.617v5.193A2.312 2.312 0 0 0 9.524 30h17.299a2.312 2.312 0 0 0 2.312-2.306V8.52a.577.577 0 0 0-.162-.4zm-7.915-6.562l6.274 6.52h-6.274v-6.52zM2.595 21.347a.576.576 0 0 1-.576-.576v-8.657c0-.317.259-.575.576-.575h15.58c.317 0 .575.258.575.575v8.657a.576.576 0 0 1-.576.575H2.595zm25.386 6.347c0 .635-.52 1.152-1.158 1.152h-17.3a1.157 1.157 0 0 1-1.158-1.153V22.5h9.809c.954 0 1.73-.776 1.73-1.73v-8.656c0-.954-.776-1.73-1.73-1.73H8.365V2.312c0-.638.52-1.157 1.159-1.157h10.38v7.5c0 .318.258.577.577.577h7.5v18.463z"/><path fill="#33313B" d="M16.678 16.805a1.393 1.393 0 0 0-.547-.503c-.233-.123-.593-.242-1.08-.357-.487-.115-.793-.225-.92-.331a.38.38 0 0 1-.149-.301.36.36 0 0 1 .16-.308c.164-.12.392-.179.682-.179.282 0 .493.056.634.167.14.112.233.295.276.55l1-.044c-.016-.455-.18-.82-.495-1.092-.314-.273-.783-.409-1.405-.409-.38 0-.705.057-.975.172-.27.115-.475.283-.618.502-.143.22-.215.456-.215.709 0 .392.152.724.456.997.217.194.593.357 1.13.49.416.104.683.176.8.216.172.061.292.133.36.215a.451.451 0 0 1 .104.3c0 .182-.082.341-.245.477-.164.137-.407.205-.729.205-.304 0-.546-.077-.725-.23-.18-.153-.298-.393-.357-.72l-.973.095c.065.554.266.976.601 1.266.336.29.817.434 1.444.434.43 0 .79-.06 1.078-.18a1.459 1.459 0 0 0 .906-1.35c0-.314-.066-.578-.198-.79zM9.899 18.203v-4.08h-1v4.915h3.488v-.835H9.899zM6.664 16.49l1.541-2.407H7.046l-.974 1.592-.994-1.592H3.91l1.535 2.37-1.694 2.586h1.2l1.102-1.714 1.099 1.714h1.206l-1.693-2.55z"/></svg>