<svg xmlns="http://www.w3.org/2000/svg" xmlns:xlink="http://www.w3.org/1999/xlink" height="242" viewBox="0 0 38 242" width="38"><svg height="30" viewBox="0 0 30 30" width="30" x="4" y="4"><path fill="#33313B" d="M28.973 8.119L21.331.177A.578.578 0 0 0 20.915 0H9.524a2.314 2.314 0 0 0-2.312 2.311v8.074H2.595c-.954 0-1.73.775-1.73 1.729v8.657c0 .953.776 1.729 1.73 1.729h4.617v5.193A2.312 2.312 0 0 0 9.524 30h17.299a2.312 2.312 0 0 0 2.312-2.306V8.52a.577.577 0 0 0-.162-.4zm-7.915-6.562l6.274 6.52h-6.274v-6.52zM2.595 21.347a.576.576 0 0 1-.576-.576v-8.657c0-.317.259-.575.576-.575h15.58c.317 0 .575.258.575.575v8.657a.576.576 0 0 1-.576.575H2.595zm25.386 6.347c0 .635-.52 1.152-1.158 1.152h-17.3a1.157 1.157 0 0 1-1.158-1.153V22.5h9.809c.954 0 1.73-.776 1.73-1.73v-8.656c0-.954-.776-1.73-1.73-1.73H8.365V2.312c0-.638.52-1.157 1.159-1.157h10.38v7.5c0 .318.258.577.577.577h7.5v18.463z"/><path fill="#33313B" d="M7.666 15.437a2.164 2.164 0 0 0-.474-.803 1.657 1.657 0 0 0-.747-.456c-.216-.064-.53-.095-.943-.095H3.673v4.956h1.883c.37 0 .665-.035.886-.105a1.76 1.76 0 0 0 .703-.396c.23-.223.407-.515.53-.875.102-.296.153-.647.153-1.055 0-.464-.054-.854-.162-1.171zm-.974 2.035c-.067.222-.155.381-.262.478a.923.923 0 0 1-.404.206c-.124.032-.326.048-.605.048h-.747V14.92h.45c.408 0 .681.016.821.048.187.04.341.118.463.233.122.115.217.275.284.48.068.205.102.499.102.882s-.034.686-.102.908zM17.232 17.216c-.083.363-.22.629-.412.798-.192.169-.42.253-.686.253-.361 0-.654-.133-.88-.398-.225-.266-.337-.713-.337-1.34 0-.59.114-1.017.343-1.28.229-.264.527-.396.894-.396.266 0 .492.075.678.223.185.15.308.352.366.609l.99-.237c-.112-.396-.28-.7-.506-.912-.379-.359-.871-.538-1.477-.538-.694 0-1.255.228-1.68.685-.426.456-.64 1.097-.64 1.921 0 .78.213 1.395.636 1.844.424.45.965.675 1.623.675.532 0 .97-.132 1.317-.394.345-.263.593-.664.741-1.205l-.97-.308zM12.623 14.678c-.438-.454-1.022-.68-1.753-.68-.403 0-.76.065-1.068.196a1.93 1.93 0 0 0-.64.446c-.195.2-.35.427-.462.68-.151.342-.226.766-.226 1.27 0 .79.217 1.409.652 1.858.435.45 1.021.675 1.758.675.728 0 1.31-.226 1.744-.678.435-.452.652-1.078.652-1.878 0-.807-.219-1.437-.657-1.89zm-.76 3.159a1.256 1.256 0 0 1-.983.43c-.398 0-.727-.144-.987-.434-.259-.29-.388-.715-.388-1.276 0-.57.126-.997.378-1.28.253-.282.585-.424.997-.424.413 0 .744.14.992.42.25.279.374.703.374 1.27 0 .575-.128 1.006-.383 1.294z"/></svg><svg height="30" viewBox="0 0 30 30" width="30" x="4" y="38"><path fill="#33313B" d="M28.973 8.119L21.331.177A.578.578 0 0 0 20.915 0H9.524a2.314 2.314 0 0 0-2.312 2.311v8.074H2.595c-.954 0-1.73.775-1.73 1.729v8.657c0 .953.776 1.729 1.73 1.729h4.617v5.193A2.312 2.312 0 0 0 9.524 30h17.299a2.312 2.312 0 0 0 2.312-2.306V8.52a.577.577 0 0 0-.162-.4zm-7.915-6.562l6.274 6.52h-6.274v-6.52zM2.595 21.347a.576.576 0 0 1-.576-.576v-8.657c0-.317.259-.575.576-.575h15.58c.317 0 .575.258.575.575v8.657a.576.576 0 0 1-.576.575H2.595zm25.386 6.347c0 .635-.52 1.152-1.158 1.152h-17.3a1.157 1.157 0 0 1-1.158-1.153V22.5h9.81c.953 0 1.729-.776 1.729-1.73v-8.656c0-.954-.776-1.73-1.73-1.73H8.365V2.312c0-.638.52-1.157 1.159-1.157h10.38v7.5c0 .318.258.577.577.577h7.5v18.463z"/><path fill="#33313B" d="M14.45 16.381v.835h1.146v.63c-.15.116-.332.216-.543.298-.21.082-.42.123-.63.123-.424 0-.766-.146-1.028-.44-.261-.295-.392-.736-.392-1.324 0-.545.13-.957.387-1.234.258-.277.606-.416 1.043-.416.289 0 .53.07.722.212.193.14.324.333.394.576l.994-.186c-.1-.455-.322-.812-.668-1.07-.346-.258-.827-.387-1.442-.387-.473 0-.869.082-1.186.247a2.186 2.186 0 0 0-.95.923c-.216.4-.325.86-.325 1.375 0 .476.097.916.291 1.32.194.405.483.716.869.934.385.217.837.326 1.355.326.408 0 .811-.078 1.209-.232.398-.154.701-.333.911-.536v-1.974H14.45zM11.036 14.643a1.3 1.3 0 0 0-.713-.486c-.185-.05-.582-.074-1.19-.074H7.527v4.956h1v-1.87h.653c.453 0 .799-.023 1.038-.07.176-.04.349-.117.519-.236.17-.118.31-.28.42-.488.111-.207.166-.463.166-.768 0-.394-.096-.716-.287-.964zm-.857 1.363a.657.657 0 0 1-.313.244c-.133.052-.396.078-.79.078h-.548V14.92h.483c.36 0 .6.011.72.034.162.03.296.102.402.22a.64.64 0 0 1 .16.446.666.666 0 0 1-.114.385zM5.465 14.083v3.201c0 .401-.046.666-.139.793-.092.127-.25.19-.473.19a.538.538 0 0 1-.493-.266c-.072-.117-.114-.318-.125-.602l-.944.108c.003.53.136.932.4 1.205.263.274.64.411 1.128.411.417 0 .753-.087 1.008-.262a1.34 1.34 0 0 0 .527-.695c.072-.22.108-.536.108-.946v-3.137h-.997z"/></svg><svg height="30" viewBox="0 0 30 30" width="30" x="4" y="72"><path fill="#33313B" d="M25.714 0H4.286a.612.612 0 0 0-.613.612v28.776c0 .338.275.612.613.612h12.857a.611.611 0 0 0 .121-.012c.025-.005.049-.014.073-.022l.041-.013c.026-.011.05-.026.074-.04.01-.006.021-.01.032-.017a.615.615 0 0 0 .09-.074l.002-.001 8.571-8.572a.613.613 0 0 0 .076-.092l.015-.027a.61.61 0 0 0 .041-.078c.006-.013.008-.026.012-.039a.618.618 0 0 0 .035-.197V.612A.612.612 0 0 0 25.715 0zm-7.959 27.91v-6.481h6.481l-6.48 6.48zm7.347-7.706h-7.96a.612.612 0 0 0-.611.612v7.96H4.898V1.224h20.204v18.98z"/><path fill="#33313B" d="M13.902 8.139a.612.612 0 0 0-.865 0l-2.017 2.016V3.062H9.796v7.093L7.78 8.139a.612.612 0 0 0-.866.866l3.061 3.06a.61.61 0 0 0 .866 0l3.061-3.06a.612.612 0 0 0 0-.866z"/></svg><svg height="30" viewBox="0 0 30 30" width="30" x="4" y="106"><path fill="#33313B" d="M28.973 8.119L21.331.177A.578.578 0 0 0 20.915 0H9.524a2.314 2.314 0 0 0-2.312 2.311v8.074H2.595c-.954 0-1.73.775-1.73 1.729v8.657c0 .953.776 1.729 1.73 1.729h4.617v5.193A2.312 2.312 0 0 0 9.524 30h17.299a2.312 2.312 0 0 0 2.312-2.306V8.52a.577.577 0 0 0-.162-.4zm-7.915-6.562l6.274 6.52h-6.274v-6.52zM2.595 21.347a.576.576 0 0 1-.576-.576v-8.657c0-.317.259-.575.576-.575h15.58c.317 0 .575.258.575.575v8.657a.576.576 0 0 1-.576.575H2.595zm25.386 6.347c0 .635-.52 1.152-1.158 1.152h-17.3a1.157 1.157 0 0 1-1.158-1.153V22.5h9.81c.953 0 1.729-.776 1.729-1.73v-8.656c0-.954-.776-1.73-1.73-1.73H8.365V2.312c0-.638.52-1.157 1.159-1.157h10.38v7.5c0 .318.258.577.577.577h7.5v18.463z"/><path fill="#33313B" d="M7.763 14.642a1.3 1.3 0 0 0-.714-.486c-.185-.05-.581-.074-1.19-.074H4.254v4.956h1v-1.87h.653c.453 0 .799-.023 1.038-.07a1.45 1.45 0 0 0 .518-.236c.17-.118.31-.28.421-.488.11-.207.166-.463.166-.767 0-.395-.096-.716-.287-.965zm-.857 1.364a.657.657 0 0 1-.313.243c-.133.052-.397.078-.791.078h-.548V14.92h.484c.36 0 .6.012.72.034.162.03.296.103.402.22a.64.64 0 0 1 .159.446.666.666 0 0 1-.113.386zM12.86 15.436a2.167 2.167 0 0 0-.473-.803 1.657 1.657 0 0 0-.747-.456c-.216-.063-.53-.095-.943-.095H8.868v4.956h1.883c.37 0 .665-.035.886-.105.295-.095.53-.227.703-.396.23-.223.406-.514.53-.875.102-.295.153-.647.153-1.055 0-.464-.055-.854-.163-1.171zm-.973 2.035c-.068.222-.155.381-.262.478a.923.923 0 0 1-.404.206c-.124.032-.326.048-.605.048h-.747V14.92h.45c.407 0 .68.016.82.048.188.04.342.118.464.233.121.115.216.275.284.48.067.205.101.5.101.882 0 .383-.034.686-.101.908zM17.275 14.92v-.838h-3.397v4.956h1v-2.106h2.07v-.839h-2.07V14.92h2.397z"/></svg><svg height="30" viewBox="0 0 30 30" width="30" x="4" y="140"><path fill="#33313B" d="M28.973 8.119L21.33.177A.577.577 0 0 0 20.915 0H9.523a2.314 2.314 0 0 0-2.311 2.311v8.074H2.595c-.954 0-1.73.775-1.73 1.729v8.657c0 .953.776 1.729 1.73 1.729h4.617v5.193A2.312 2.312 0 0 0 9.523 30h17.3a2.311 2.311 0 0 0 2.312-2.306V8.52a.577.577 0 0 0-.162-.4zm-7.915-6.562l6.274 6.52h-6.274v-6.52zM2.595 21.347a.576.576 0 0 1-.576-.576v-8.657c0-.317.259-.575.576-.575h15.58c.317 0 .575.258.575.575v8.657a.576.576 0 0 1-.576.575H2.595zm25.386 6.347c0 .635-.52 1.152-1.158 1.152h-17.3a1.157 1.157 0 0 1-1.158-1.153V22.5h9.81c.953 0 1.729-.776 1.729-1.73v-8.656c0-.954-.776-1.73-1.73-1.73H8.365V2.312c0-.638.52-1.157 1.158-1.157h10.38v7.5c0 .318.26.577.578.577h7.5v18.463z"/><path fill="#33313B" d="M13.134 14.083v.838h1.47v4.118h1.001V14.92h1.467v-.838h-3.938zM12.38 14.643a1.3 1.3 0 0 0-.713-.486c-.185-.05-.582-.074-1.19-.074H8.871v4.956h1v-1.87h.653c.453 0 .8-.023 1.038-.07.176-.04.349-.117.519-.236.17-.118.31-.28.42-.488.111-.207.166-.463.166-.768 0-.394-.095-.716-.287-.964zm-.857 1.363a.659.659 0 0 1-.312.244c-.133.052-.397.078-.792.078h-.547V14.92h.483c.36 0 .6.011.72.034.163.03.297.102.402.22a.64.64 0 0 1 .16.446.667.667 0 0 1-.114.385zM7.762 14.643a1.3 1.3 0 0 0-.713-.486c-.185-.05-.581-.074-1.19-.074H4.254v4.956h1v-1.87h.653c.453 0 .799-.023 1.037-.07.176-.04.35-.117.52-.236.17-.118.31-.28.42-.488.11-.207.166-.463.166-.768 0-.394-.096-.716-.288-.964zm-.856 1.363a.658.658 0 0 1-.313.244c-.133.052-.397.078-.791.078h-.548V14.92h.484c.36 0 .6.011.72.034.162.03.296.102.402.22a.64.64 0 0 1 .159.446.667.667 0 0 1-.113.385z"/></svg><svg height="30" viewBox="0 0 30 30" width="30" x="4" y="174"><path fill="#33313B" d="M28.973 8.119L21.331.177A.578.578 0 0 0 20.915 0H9.524a2.314 2.314 0 0 0-2.312 2.311v8.074H2.595c-.954 0-1.73.775-1.73 1.729v8.657c0 .953.776 1.729 1.73 1.729h4.617v5.193A2.312 2.312 0 0 0 9.524 30h17.299a2.312 2.312 0 0 0 2.312-2.306V8.52a.577.577 0 0 0-.162-.4zm-7.915-6.562l6.274 6.52h-6.274v-6.52zM2.595 21.347a.576.576 0 0 1-.576-.576v-8.657c0-.317.259-.575.576-.575h15.58c.317 0 .575.258.575.575v8.657a.576.576 0 0 1-.576.575H2.595zm25.386 6.347c0 .635-.52 1.152-1.158 1.152h-17.3a1.157 1.157 0 0 1-1.158-1.153V22.5h9.809c.954 0 1.73-.776 1.73-1.73v-8.656c0-.954-.776-1.73-1.73-1.73H8.365V2.312c0-.638.52-1.157 1.159-1.157h10.38v7.5c0 .318.258.577.577.577h7.5v18.463z"/><path fill="#33313B" d="M16.678 16.805a1.393 1.393 0 0 0-.547-.503c-.233-.123-.593-.242-1.08-.357-.487-.115-.793-.225-.92-.331a.38.38 0 0 1-.149-.301.36.36 0 0 1 .16-.308c.164-.12.392-.179.682-.179.282 0 .493.056.634.167.14.112.233.295.276.55l1-.044c-.016-.455-.18-.82-.495-1.092-.314-.273-.783-.409-1.405-.409-.38 0-.705.057-.975.172-.27.115-.475.283-.618.502-.143.22-.215.456-.215.709 0 .392.152.724.456.997.217.194.593.357 1.13.49.416.104.683.176.8.216.172.061.292.133.36.215a.451.451 0 0 1 .104.3c0 .182-.082.341-.245.477-.164.137-.407.205-.729.205-.304 0-.546-.077-.725-.23-.18-.153-.298-.393-.357-.72l-.973.095c.065.554.266.976.601 1.266.336.29.817.434 1.444.434.43 0 .79-.06 1.078-.18a1.459 1.459 0 0 0 .906-1.35c0-.314-.066-.578-.198-.79zM9.899 18.203v-4.08h-1v4.915h3.488v-.835H9.899zM6.664 16.49l1.541-2.407H7.046l-.974 1.592-.994-1.592H3.91l1.535 2.37-1.694 2.586h1.2l1.102-1.714 1.099 1.714h1.206l-1.693-2.55z"/></svg><svg height="30" viewBox="0 0 30 30" width="30" x="4" y="208"><path fill="#33313B" d="M28.973 8.119L21.331.177A.578.578 0 0 0 20.915 0H9.524a2.314 2.314 0 0 0-2.312 2.311v8.074H2.595c-.954 0-1.73.775-1.73 1.729v8.657c0 .953.776 1.729 1.73 1.729h4.617v5.193A2.312 2.312 0 0 0 9.524 30h17.299a2.312 2.312 0 0 0 2.312-2.306V8.52a.577.577 0 0 0-.162-.4zm-7.915-6.562l6.274 6.52h-6.274v-6.52zM2.595 21.347a.576.576 0 0 1-.576-.576v-8.657c0-.317.259-.575.576-.575h15.58c.317 0 .575.258.575.575v8.657a.576.576 0 0 1-.576.575H2.595zm25.386 6.347c0 .635-.52 1.152-1.158 1.152h-17.3a1.157 1.157 0 0 1-1.158-1.153V22.5h9.809c.954 0 1.73-.776 1.73-1.73v-8.656c0-.954-.776-1.73-1.73-1.73H8.365V2.312c0-.638.52-1.157 1.159-1.157h10.38v7.5c0 .318.258.577.577.577h7.5v18.463z"/><path fill="#33313B" d="M11.183 14.083h-1v4.956h1v-4.956zM6.762 18.204l2.714-3.344v-.777H5.85v.838h2.309l-2.603 3.215v.903h4.026v-.835H6.762zM15.646 14.643a1.3 1.3 0 0 0-.714-.486c-.184-.05-.581-.074-1.19-.074h-1.605v4.956h1v-1.87h.653c.453 0 .799-.023 1.038-.07.175-.04.348-.117.518-.236.17-.118.31-.28.421-.488.11-.207.166-.463.166-.768 0-.394-.096-.716-.287-.964zm-.857 1.363a.657.657 0 0 1-.313.244c-.133.052-.397.078-.79.078h-.549V14.92h.484c.36 0 .6.011.72.034.162.03.296.102.402.22a.64.64 0 0 1 .159.446.666.666 0 0 1-.113.385z"/></svg></svg>