<svg xmlns="http://www.w3.org/2000/svg" width="30" height="30" viewBox="0 0 30 30" fill="none"><path fill="#33313B" d="M28.973 8.119L21.331.177A.578.578 0 0 0 20.915 0H9.524a2.314 2.314 0 0 0-2.312 2.311v8.074H2.595c-.954 0-1.73.775-1.73 1.729v8.657c0 .953.776 1.729 1.73 1.729h4.617v5.193A2.312 2.312 0 0 0 9.524 30h17.299a2.312 2.312 0 0 0 2.312-2.306V8.52a.577.577 0 0 0-.162-.4zm-7.915-6.562l6.274 6.52h-6.274v-6.52zM2.595 21.347a.576.576 0 0 1-.576-.576v-8.657c0-.317.259-.575.576-.575h15.58c.317 0 .575.258.575.575v8.657a.576.576 0 0 1-.576.575H2.595zm25.386 6.347c0 .635-.52 1.152-1.158 1.152h-17.3a1.157 1.157 0 0 1-1.158-1.153V22.5h9.809c.954 0 1.73-.776 1.73-1.73v-8.656c0-.954-.776-1.73-1.73-1.73H8.365V2.312c0-.638.52-1.157 1.159-1.157h10.38v7.5c0 .318.258.577.577.577h7.5v18.463z"/><path fill="#33313B" d="M7.666 15.437a2.164 2.164 0 0 0-.474-.803 1.657 1.657 0 0 0-.747-.456c-.216-.064-.53-.095-.943-.095H3.673v4.956h1.883c.37 0 .665-.035.886-.105a1.76 1.76 0 0 0 .703-.396c.23-.223.407-.515.53-.875.102-.296.153-.647.153-1.055 0-.464-.054-.854-.162-1.171zm-.974 2.035c-.067.222-.155.381-.262.478a.923.923 0 0 1-.404.206c-.124.032-.326.048-.605.048h-.747V14.92h.45c.408 0 .681.016.821.048.187.04.341.118.463.233.122.115.217.275.284.48.068.205.102.499.102.882s-.034.686-.102.908zM17.232 17.216c-.083.363-.22.629-.412.798-.192.169-.42.253-.686.253-.361 0-.654-.133-.88-.398-.225-.266-.337-.713-.337-1.34 0-.59.114-1.017.343-1.28.229-.264.527-.396.894-.396.266 0 .492.075.678.223.185.15.308.352.366.609l.99-.237c-.112-.396-.28-.7-.506-.912-.379-.359-.871-.538-1.477-.538-.694 0-1.255.228-1.68.685-.426.456-.64 1.097-.64 1.921 0 .78.213 1.395.636 1.844.424.45.965.675 1.623.675.532 0 .97-.132 1.317-.394.345-.263.593-.664.741-1.205l-.97-.308zM12.623 14.678c-.438-.454-1.022-.68-1.753-.68-.403 0-.76.065-1.068.196a1.93 1.93 0 0 0-.64.446c-.195.2-.35.427-.462.68-.151.342-.226.766-.226 1.27 0 .79.217 1.409.652 1.858.435.45 1.021.675 1.758.675.728 0 1.31-.226 1.744-.678.435-.452.652-1.078.652-1.878 0-.807-.219-1.437-.657-1.89zm-.76 3.159a1.256 1.256 0 0 1-.983.43c-.398 0-.727-.144-.987-.434-.259-.29-.388-.715-.388-1.276 0-.57.126-.997.378-1.28.253-.282.585-.424.997-.424.413 0 .744.14.992.42.25.279.374.703.374 1.27 0 .575-.128 1.006-.383 1.294z"/></svg>