<svg xmlns="http://www.w3.org/2000/svg" width="30" height="30" viewBox="0 0 30 30" fill="none"><path fill="#33313B" d="M28.973 8.119L21.331.177A.578.578 0 0 0 20.915 0H9.524a2.314 2.314 0 0 0-2.312 2.311v8.074H2.595c-.954 0-1.73.775-1.73 1.729v8.657c0 .953.776 1.729 1.73 1.729h4.617v5.193A2.312 2.312 0 0 0 9.524 30h17.299a2.312 2.312 0 0 0 2.312-2.306V8.52a.577.577 0 0 0-.162-.4zm-7.915-6.562l6.274 6.52h-6.274v-6.52zM2.595 21.347a.576.576 0 0 1-.576-.576v-8.657c0-.317.259-.575.576-.575h15.58c.317 0 .575.258.575.575v8.657a.576.576 0 0 1-.576.575H2.595zm25.386 6.347c0 .635-.52 1.152-1.158 1.152h-17.3a1.157 1.157 0 0 1-1.158-1.153V22.5h9.81c.953 0 1.729-.776 1.729-1.73v-8.656c0-.954-.776-1.73-1.73-1.73H8.365V2.312c0-.638.52-1.157 1.159-1.157h10.38v7.5c0 .318.258.577.577.577h7.5v18.463z"/><path fill="#33313B" d="M7.763 14.642a1.3 1.3 0 0 0-.714-.486c-.185-.05-.581-.074-1.19-.074H4.254v4.956h1v-1.87h.653c.453 0 .799-.023 1.038-.07a1.45 1.45 0 0 0 .518-.236c.17-.118.31-.28.421-.488.11-.207.166-.463.166-.767 0-.395-.096-.716-.287-.965zm-.857 1.364a.657.657 0 0 1-.313.243c-.133.052-.397.078-.791.078h-.548V14.92h.484c.36 0 .6.012.72.034.162.03.296.103.402.22a.64.64 0 0 1 .159.446.666.666 0 0 1-.113.386zM12.86 15.436a2.167 2.167 0 0 0-.473-.803 1.657 1.657 0 0 0-.747-.456c-.216-.063-.53-.095-.943-.095H8.868v4.956h1.883c.37 0 .665-.035.886-.105.295-.095.53-.227.703-.396.23-.223.406-.514.53-.875.102-.295.153-.647.153-1.055 0-.464-.055-.854-.163-1.171zm-.973 2.035c-.068.222-.155.381-.262.478a.923.923 0 0 1-.404.206c-.124.032-.326.048-.605.048h-.747V14.92h.45c.407 0 .68.016.82.048.188.04.342.118.464.233.121.115.216.275.284.48.067.205.101.5.101.882 0 .383-.034.686-.101.908zM17.275 14.92v-.838h-3.397v4.956h1v-2.106h2.07v-.839h-2.07V14.92h2.397z"/></svg>