<svg xmlns="http://www.w3.org/2000/svg" width="30" height="30" viewBox="0 0 30 30" fill="none"><path fill="#33313B" d="M28.973 8.119L21.331.177A.578.578 0 0 0 20.915 0H9.524a2.314 2.314 0 0 0-2.312 2.311v8.074H2.595c-.954 0-1.73.775-1.73 1.729v8.657c0 .953.776 1.729 1.73 1.729h4.617v5.193A2.312 2.312 0 0 0 9.524 30h17.299a2.312 2.312 0 0 0 2.312-2.306V8.52a.577.577 0 0 0-.162-.4zm-7.915-6.562l6.274 6.52h-6.274v-6.52zM2.595 21.347a.576.576 0 0 1-.576-.576v-8.657c0-.317.259-.575.576-.575h15.58c.317 0 .575.258.575.575v8.657a.576.576 0 0 1-.576.575H2.595zm25.386 6.347c0 .635-.52 1.152-1.158 1.152h-17.3a1.157 1.157 0 0 1-1.158-1.153V22.5h9.809c.954 0 1.73-.776 1.73-1.73v-8.656c0-.954-.776-1.73-1.73-1.73H8.365V2.312c0-.638.52-1.157 1.159-1.157h10.38v7.5c0 .318.258.577.577.577h7.5v18.463z"/><path fill="#33313B" d="M11.183 14.083h-1v4.956h1v-4.956zM6.762 18.204l2.714-3.344v-.777H5.85v.838h2.309l-2.603 3.215v.903h4.026v-.835H6.762zM15.646 14.643a1.3 1.3 0 0 0-.714-.486c-.184-.05-.581-.074-1.19-.074h-1.605v4.956h1v-1.87h.653c.453 0 .799-.023 1.038-.07.175-.04.348-.117.518-.236.17-.118.31-.28.421-.488.11-.207.166-.463.166-.768 0-.394-.096-.716-.287-.964zm-.857 1.363a.657.657 0 0 1-.313.244c-.133.052-.397.078-.79.078h-.549V14.92h.484c.36 0 .6.011.72.034.162.03.296.102.402.22a.64.64 0 0 1 .159.446.666.666 0 0 1-.113.385z"/></svg>